<svg id="Layer_1" data-name="Layer 1" xmlns="http://www.w3.org/2000/svg" viewBox="0 0 460.71 379.97"><defs><style>.cls-1{fill:#fff;}</style></defs><g id="Regular-S"><path class="cls-1" d="M486,255.83c0-7-3.17-13.61-8.87-19L313.72,73.76c-5.7-5.38-12-7.91-18.68-7.91-13.93,0-24.7,10.45-24.7,24.7,0,6.65,2.22,13.3,7,17.73L321,153.56l89.92,81.06-61.43-4.43H50.59c-14.88,0-25.33,10.76-25.33,25.64s10.45,25.65,25.33,25.65H349.5l61.75-4.43L321,358.11l-43.7,45.28c-4.75,4.43-7,11.08-7,17.73,0,14.25,10.77,24.7,24.7,24.7,6.65,0,13-2.53,18.68-7.92L477.11,274.83C482.81,269.45,486,262.8,486,255.83Z" transform="translate(-25.26 -65.85)"/></g></svg>