<svg id="Layer_1" data-name="Layer 1" xmlns="http://www.w3.org/2000/svg" viewBox="0 0 460.74 379.97"><defs><style>.cls-1{fill:#168bf2;}</style></defs><g id="Regular-S"><path class="cls-1" d="M460.74,190c0-7-3.17-13.61-8.87-19L288.46,7.91c-5.7-5.38-12-7.91-18.68-7.91-13.93,0-24.7,10.45-24.7,24.7,0,6.65,2.22,13.3,7,17.73l43.66,45.28,89.92,81.06-61.43-4.43H25.33C10.45,164.34,0,175.1,0,190s10.45,25.65,25.33,25.65H324.24L386,211.2l-90.25,81.06L252,337.54c-4.75,4.43-7,11.08-7,17.73,0,14.25,10.77,24.7,24.7,24.7,6.65,0,13-2.53,18.68-7.92L451.85,209C457.55,203.6,460.74,197,460.74,190Z" transform="translate(0 0)"/></g></svg>