<svg id="Layer_1" data-name="Layer 1" xmlns="http://www.w3.org/2000/svg" viewBox="0 0 31.73 31.71"><defs><style>.cls-1{fill:#30d158;}</style></defs><g id="Light-S"><path class="cls-1" d="M16,31.88A16,16,0,0,0,31.91,16,16,16,0,0,0,16,.17,15.94,15.94,0,0,0,.19,16,16,16,0,0,0,16,31.88ZM14.3,23.65A1.42,1.42,0,0,1,13.08,23L9,18a1.57,1.57,0,0,1-.34-.91A1.14,1.14,0,0,1,9.75,16a1.21,1.21,0,0,1,1,.58l3.45,4.33,7-11.09a1.19,1.19,0,0,1,1-.64,1.11,1.11,0,0,1,1.17,1.06,1.86,1.86,0,0,1-.34.92L15.44,23A1.31,1.31,0,0,1,14.3,23.65Z" transform="translate(-0.19 -0.17)"/></g></svg>