<svg id="Layer_1" data-name="Layer 1" xmlns="http://www.w3.org/2000/svg" viewBox="0 0 25.38 30.93"><defs><style>.cls-1{fill:#fff;}</style></defs><g id="Light-S"><path class="cls-1" d="M16,22.08a1,1,0,0,0,.74-.33l5-4.85a.87.87,0,0,0,.32-.66.9.9,0,0,0-.94-.9.87.87,0,0,0-.68.31l-2.33,2.43-1.14,1.18L17,17.14V1.51a1,1,0,0,0-1-1,1,1,0,0,0-1,1V17.14l.09,2.12-1.14-1.18L11.6,15.65a.92.92,0,0,0-.72-.31.88.88,0,0,0-.9.9.92.92,0,0,0,.3.66l5,4.85A1,1,0,0,0,16,22.08ZM7.7,31.46H24.29c2.93,0,4.4-1.45,4.4-4.33V12.53c0-2.85-1.47-4.33-4.4-4.33H20.23v2.05h4a2.16,2.16,0,0,1,2.39,2.4V27a2.16,2.16,0,0,1-2.39,2.4H7.73A2.13,2.13,0,0,1,5.36,27V12.65a2.13,2.13,0,0,1,2.37-2.4h4.06V8.2H7.7c-2.92,0-4.39,1.46-4.39,4.33v14.6C3.31,30,4.78,31.46,7.7,31.46Z" transform="translate(-3.31 -0.54)"/></g></svg>