<svg id="Layer_1" data-name="Layer 1" xmlns="http://www.w3.org/2000/svg" viewBox="0 0 31.28 31.27"><defs><style>.cls-1{fill:#ff453a;}</style></defs><g id="Light-S"><path class="cls-1" d="M16,31.63A15.73,15.73,0,0,0,31.64,16,15.74,15.74,0,0,0,16,.37,15.71,15.71,0,0,0,.36,16,15.72,15.72,0,0,0,16,31.63Zm-5.49-9a1.14,1.14,0,0,1-1.12-1.14,1.18,1.18,0,0,1,.33-.81L14.39,16,9.71,11.36a1.18,1.18,0,0,1-.33-.81A1.12,1.12,0,0,1,10.5,9.43a1.09,1.09,0,0,1,.81.33L16,14.42l4.7-4.66a1,1,0,0,1,.79-.35,1.12,1.12,0,0,1,.79,1.93L17.61,16l4.66,4.66a1.15,1.15,0,0,1-.81,1.95,1.25,1.25,0,0,1-.83-.35L16,17.62l-4.64,4.66A1.17,1.17,0,0,1,10.5,22.63Z" transform="translate(-0.36 -0.37)"/></g></svg>